<svg xmlns="http://www.w3.org/2000/svg" viewBox="0 0 520 560" role="img" aria-labelledby="t d"><title id="t">Mapa esquemático da Margem Equatorial brasileira</title><desc id="d">Costa norte e nordeste do Brasil com cinco bacias sedimentares.</desc><defs><filter id="g"><feGaussianBlur stdDeviation="9"/></filter><linearGradient id="land" x2="1" y2="1"><stop stop-color="#214f38"/><stop offset="1" stop-color="#4b6b37"/></linearGradient></defs><path d="M105 72L174 42l74 29 54 48 88 20 32 55-22 52-36 34-17 92-40 115-60 42-49-63 10-70-45-61-5-76-48-46 35-57z" fill="url(#land)" stroke="#77a779" stroke-width="3"/><path d="M130 58Q251 50 399 151Q442 184 417 263" fill="none" stroke="#08c5c8" stroke-width="29" opacity=".25" filter="url(#g)"/><path d="M130 58Q251 50 399 151Q442 184 417 263" fill="none" stroke="#12cbd0" stroke-width="10"/><g fill="#eaf7f2" font-family="Arial" font-size="14"><text x="72" y="37">Foz do Amazonas</text><text x="208" y="73">Pará–Maranhão</text><text x="309" y="116">Barreirinhas</text><text x="392" y="158">Ceará</text><text x="411" y="225">Potiguar</text></g><g fill="#b9d0ca" font-family="Arial" font-size="16" font-weight="700"><text x="165" y="142">PA</text><text x="276" y="161">MA</text><text x="334" y="192">PI</text><text x="374" y="204">CE</text><text x="392" y="246">RN</text></g></svg>
